<?xml version="1.0" encoding="utf-8"?>
<!-- Generator: Adobe Illustrator 27.3.1, SVG Export Plug-In . SVG Version: 6.00 Build 0)  -->
<svg version="1.1" id="Layer_1" xmlns="http://www.w3.org/2000/svg" xmlns:xlink="http://www.w3.org/1999/xlink" x="0px" y="0px"
	 viewBox="0 0 800 800" style="enable-background:new 0 0 800 800;" xml:space="preserve">
<style type="text/css">
	.st0{fill:#BABABA;}
	.st1{fill:#3A7639;}
	.st2{fill:#39B54A;}
	.st3{fill:#38182A;}
	.st4{fill:#22111A;}
	.st5{fill:#592544;}
	.st6{fill:#80416C;}
	.st7{fill:#FFFFFF;}
	.st8{fill:#C36873;}
	.st9{fill:#F3B8C3;}
</style>
<g>
	<path class="st0" d="M179.1,480.47c0,0-39.17,15.98-29.62,72.56c9.55,56.58,165.01,59.27,165.01,59.27s-6.53,39.1,109.86,39.1
		s144.32-55.41,95.94-99.28c-48.38-43.87-48.38-43.87-48.38-43.87s104.25-12.85,103.43-58.99c-0.81-46.14-205.89-71.76-205.89-71.76
		L179.1,480.47z"/>
	<g>
		<g>
			<path class="st1" d="M760.44,148.61c0,0-12.18,88.38-85.89,171.56C600.86,403.36,441.8,402.2,441.8,402.2
				s17.84-57.35,38.31-95.62c0,0,20.9-45.99,50.13-78.54l1.87,6.73c0,0,21.23-24.16,42.88-36.23
				c18.27-10.16,21.12-11.75,21.57-12.01c0.09-0.04,0.09-0.04,0.09-0.04v4.22c0,0,33.42-15.69,53.6-18.29
				c20.15-2.62,20.15-2.62,20.15-2.62v6.43c0,0,27.34-12.33,40.2-13.94c11.26-1.42,14.3-3.56,14.9-4.07l-5.81,7.03
				C719.68,165.27,750.79,158.49,760.44,148.61z"/>
			<g>
				<path class="st2" d="M554.84,260.69c1.22,3.45,2.3,8.23,2.78,13.05c0.21,2.42,0.3,4.83,0.21,7.09c-0.1,2.25-0.31,4.35-0.66,6.1
					c-0.17,0.88-0.32,1.68-0.53,2.35c-0.19,0.68-0.32,1.26-0.53,1.77c-0.36,1.01-0.57,1.58-0.57,1.58l2.29,0.75
					c0,0,0.17-0.59,0.47-1.62c0.28-1.02,0.67-2.68,0.88-4.53c0.25-1.87,0.34-4.06,0.3-6.4c-0.05-2.33-0.3-4.81-0.67-7.25
					c-0.79-4.89-2.18-9.64-3.62-13.04c-0.7-1.71-1.39-3.08-1.9-4.02c-0.52-0.93-0.82-1.47-0.82-1.47s0.27,0.55,0.73,1.52
					C553.65,257.55,554.25,258.96,554.84,260.69z"/>
				<path class="st2" d="M735.67,202.89c-1.2,1.31-3.14,2.97-5.73,4.58c-5.17,3.24-12.7,6.38-20.45,8.8
					c-7.74,2.46-15.71,4.04-21.72,4.56c-3,0.28-5.53,0.35-7.26,0.35c-0.26,0-0.46,0-0.69-0.01c1.67-1.14,3.31-2.3,4.92-3.45
					c3.45-2.38,6.7-4.88,9.9-7.28c6.37-4.81,12.23-9.57,17.56-14.05c10.66-8.96,19.03-17.01,24.81-22.71
					c5.76-5.73,8.84-9.19,8.84-9.19s-3.24,3.32-9.17,8.85c-5.91,5.55-14.58,13.24-25.35,22.01c-4.78,3.87-9.99,7.96-15.59,12.09
					c-0.08-0.1-0.16-0.2-0.26-0.32c-0.06-0.15-0.07-0.28-0.14-0.43c-0.12-0.31-0.24-0.95-0.16-1.65c0.03-0.71,0.24-1.57,0.55-2.49
					c0.61-1.86,1.69-3.99,2.9-6.27c0.6-1.14,1.24-2.32,1.84-3.57c0.58-1.25,1.19-2.57,1.41-4.07c0.21-1.35,0.26-2.82,0.27-4.18
					c0-1.38-0.09-2.72-0.19-4.02c-0.23-2.59-0.56-4.98-0.81-7.04c-0.53-4.1-0.53-6.87-0.53-6.87s-0.16,2.76,0.15,6.9
					c0.13,2.07,0.33,4.48,0.42,7.05c0.03,1.29,0.05,2.61-0.02,3.95c-0.09,1.36-0.2,2.64-0.48,4.02c-0.24,1.24-0.86,2.43-1.49,3.6
					c-0.65,1.17-1.34,2.3-2.01,3.41c-1.34,2.22-2.58,4.35-3.38,6.38c-0.4,1.02-0.71,2-0.81,2.97c-0.06,0.48-0.12,0.93-0.05,1.38
					c0.05,0.45,0.03,0.83,0.22,1.27c0.14,0.41,0.3,0.79,0.44,1.07c0.09,0.13,0.16,0.22,0.23,0.32c-0.09,0.06-0.17,0.12-0.25,0.19
					c-3.22,2.33-6.5,4.76-9.98,7.07c-3.44,2.36-6.94,4.8-10.61,7.09c-1.82,1.17-3.66,2.36-5.51,3.55c-1.89,1.13-3.79,2.26-5.71,3.4
					c-1.92,1.13-3.83,2.32-5.8,3.41c-1.98,1.07-3.96,2.15-5.96,3.23c-3.76,2.14-7.75,4-11.72,5.93c0.48-1.63,1.11-3.79,1.88-6.38
					c0.88-2.81,1.83-6.1,3.61-9.25c0.88-1.6,1.9-3.24,2.8-5.02c0.91-1.74,1.64-3.8,1.87-5.77c0.62-4,0.61-7.98,0.46-11.7
					c-0.15-3.72-0.45-7.17-0.69-10.13c-0.53-5.91-0.61-9.87-0.61-9.87s-0.07,3.96,0.23,9.89c0.13,2.96,0.29,6.42,0.3,10.12
					c0.01,3.69-0.14,7.65-0.88,11.46c-0.31,1.96-1,3.65-1.95,5.33c-0.6,1.09-1.26,2.14-1.91,3.18c0.39-1.87,0.65-3.94,0.58-6.06
					c-0.08-1.72-0.32-3.45-1-4.95c-0.66-1.47-1.46-2.73-2.02-3.87c-0.58-1.13-0.9-2.15-1.04-2.87c-0.15-0.73-0.14-1.16-0.14-1.16
					s-0.02,0.43,0.09,1.17c0.11,0.74,0.38,1.78,0.92,2.94c0.51,1.17,1.26,2.47,1.84,3.93c0.59,1.44,0.75,3.15,0.75,4.81
					c-0.04,3.36-0.9,6.65-1.78,8.99c-0.06,0.17-0.12,0.29-0.18,0.45c-0.56,1.07-1.07,2.14-1.48,3.17c-0.05,0.1-0.09,0.16-0.09,0.16
					l0.02,0.01c-0.63,1.55-1.16,3.03-1.63,4.4c-0.94,2.81-1.73,5.15-2.28,6.79c-0.25,0.69-0.45,1.23-0.6,1.65
					c-3.37,1.64-6.74,3.28-10.11,4.93c-4.19,2.03-8.17,4.45-12.25,6.65c-4.05,2.26-7.93,4.76-11.86,7.1
					c-3.9,2.4-7.65,4.96-11.42,7.38c-0.78,0.52-1.54,1.05-2.31,1.58c0-0.29,0-0.56-0.01-0.91c-0.05-2.08-0.37-5-1.06-8.41
					c-0.66-3.41-1.68-7.3-2.48-11.48c-0.32-1.63-0.54-3.33-0.72-5.05c0-0.84-0.07-2.05-0.28-3.4c-0.1-1.59-0.18-3.2-0.22-4.82
					c-0.13-4.57-0.12-9.16-0.36-13.46c-0.25-4.27,0.02-8.28,1.14-11.52c0.53-1.63,1.21-3.04,1.73-4.34
					c0.54-1.29,0.88-2.48,1.01-3.48c0.14-1,0.1-1.79,0.07-2.33c-0.06-0.53-0.09-0.82-0.09-0.82s0.02,0.29,0.06,0.82
					c0.01,0.54,0.03,1.33-0.15,2.31c-0.17,0.98-0.54,2.14-1.11,3.41c-0.56,1.27-1.29,2.68-1.88,4.31
					c-1.25,3.25-1.67,7.36-1.55,11.67c0.09,3.99-0.03,8.22-0.07,12.49c-0.63-1.86-1.42-3.8-2.32-5.67
					c-1.84-3.83-3.97-7.48-5.52-10.24c-1.56-2.76-2.52-4.64-2.52-4.64s0.89,1.92,2.35,4.73c1.45,2.82,3.45,6.54,5.14,10.4
					c1.31,3,2.32,6.1,2.86,8.79c0.03,3.79,0.22,7.58,0.8,11.13c0.68,4.29,1.57,8.2,2.1,11.56c0.56,3.35,0.77,6.15,0.75,8.08
					c-0.01,0.94-0.03,1.7-0.09,2.25c-0.01,0.13-0.01,0.19-0.02,0.29c-2.08,1.44-4.14,2.89-6.19,4.29
					c-14.22,10.07-26.88,20.27-37.57,29.18c-10.68,8.93-19.23,16.77-25.19,22.28c-1.7,1.58-3.15,2.96-4.4,4.15
					c-0.2,0.02-0.3,0.03-0.3,0.03l0.03,0.22c-2.93,2.81-4.53,4.42-4.53,4.42s1.62-1.5,4.57-4.13l0.24,1.88c0,0,1.54-0.22,4.24-0.6
					c2.69-0.36,6.54-0.86,11.17-1.35c9.27-1.02,21.68-1.95,34.12-2.46c6.22-0.27,12.44-0.46,18.28-0.6
					c5.83-0.16,11.29-0.15,15.96-0.35c4.67-0.18,8.56-0.6,11.25-1.04c2.69-0.44,4.21-0.81,4.21-0.81s-1.52,0.34-4.22,0.71
					c-2.7,0.38-6.58,0.7-11.25,0.77c-4.66,0.09-10.12-0.05-15.96-0.03c-5.84,0-12.07,0.04-18.31,0.15
					c-12.47,0.21-24.94,0.84-34.27,1.64c-4.67,0.38-8.55,0.79-11.28,1.09c-1.62,0.19-2.81,0.33-3.52,0.41
					c5.85-5.2,16.31-14.29,30.02-25.33c5.4-4.37,11.33-9.01,17.67-13.81c6.35-4.8,13.15-9.7,20.24-14.71
					c3.59-2.43,7.19-4.99,10.92-7.43c3.76-2.39,7.51-4.92,11.4-7.28c1.85-1.09,3.69-2.21,5.54-3.33v0.29c0,0,15.4-0.19,34.06-0.41
					l0.01,0.11c0,0,0.4-0.03,1.1-0.09c0.14-0.01,0.31-0.02,0.49-0.04c4.54-0.06,9.24-0.11,13.94-0.17c6.2-0.11,12.4-0.07,18.23-0.34
					c5.82-0.26,11.27-1.11,15.69-2.66c2.19-0.81,4.16-1.67,5.77-2.68c0.83-0.46,1.56-0.96,2.22-1.45c0.68-0.46,1.27-0.92,1.78-1.38
					c1.06-0.85,1.8-1.62,2.31-2.14c0.51-0.52,0.78-0.79,0.78-0.79s-0.28,0.27-0.8,0.77c-0.52,0.51-1.27,1.26-2.35,2.08
					c-0.51,0.44-1.11,0.89-1.8,1.33c-0.67,0.47-1.41,0.95-2.24,1.38c-1.62,0.96-3.6,1.76-5.78,2.51c-4.41,1.42-9.81,2.13-15.59,2.25
					c-5.79,0.14-12-0.05-18.2-0.1c-3.22-0.04-6.43-0.08-9.6-0.12c0.61-0.34,1.23-0.72,1.85-1.14c1.25-0.89,2.5-1.92,3.69-3
					c1.2-1.07,2.37-2.16,3.54-3.09c1.15-0.96,2.32-1.73,3.39-2.25c0.55-0.23,1.04-0.49,1.52-0.58c0.47-0.11,0.88-0.27,1.23-0.26
					c0.7-0.06,1.1-0.09,1.1-0.09s-0.4,0.01-1.1,0.04c-0.36-0.02-0.77,0.12-1.25,0.21c-0.49,0.07-1,0.31-1.57,0.52
					c-1.11,0.48-2.34,1.21-3.54,2.12c-1.23,0.89-2.45,1.93-3.7,2.94c-1.24,1.02-2.51,1.97-3.76,2.77c-1.26,0.77-2.48,1.4-3.59,1.71
					c-0.1,0.04-0.19,0.05-0.29,0.08c-14.69-0.18-27.87-0.34-33.95-0.41c0.91-0.53,1.8-1.07,2.72-1.58c4.06-2.16,8.03-4.54,12.2-6.52
					c3.65-1.8,7.29-3.6,10.92-5.4l0.04,0.02c0,0,0.01-0.04,0.01-0.04c0.48-0.24,0.97-0.48,1.45-0.72c4.14-2.05,8.29-4,12.29-6.3
					c2.01-1.11,4.01-2.21,6.01-3.3c1.98-1.11,3.89-2.32,5.82-3.47c1.92-1.16,3.83-2.31,5.73-3.46c1.85-1.21,3.69-2.41,5.52-3.6
					c1.22-0.78,2.39-1.57,3.58-2.36l0,0.96c0,0,1.01,0,2.81-0.05c1.83-0.06,4.4-0.24,7.47-0.64c6.14-0.77,14.17-2.67,21.88-5.44
					c7.7-2.72,15.2-6.17,20.28-9.63c2.55-1.71,4.45-3.46,5.6-4.83c0.56-0.7,0.98-1.26,1.21-1.68c0.25-0.41,0.38-0.62,0.38-0.62
					s-0.14,0.21-0.41,0.61C736.7,201.68,736.26,202.22,735.67,202.89z"/>
				<path class="st2" d="M668.46,293.32c-2.31,2.45-6.43,5.18-11.86,7.15c-1.36,0.48-2.8,0.91-4.32,1.19
					c-1.53,0.25-3.14,0.4-4.79,0.52c-3.3,0.25-6.8,0.34-10.42,0.3c-2.22-0.02-4.5-0.09-6.79-0.19c1.97-0.42,4.04-0.94,6.08-1.58
					c2.1-0.7,4.2-1.43,6.08-2.32c1.9-0.84,3.58-1.82,4.97-2.73c0.66-0.51,1.3-0.92,1.79-1.38c0.48-0.47,0.94-0.84,1.25-1.21
					c0.6-0.76,0.95-1.19,0.95-1.19s-0.36,0.42-0.98,1.15c-0.32,0.36-0.79,0.71-1.29,1.16c-0.5,0.44-1.16,0.83-1.83,1.31
					c-1.41,0.86-3.1,1.77-5.02,2.53c-1.89,0.82-3.99,1.47-6.1,2.09c-3.68,1.01-7.4,1.66-10.46,1.95c-3.74-0.19-7.54-0.4-11.35-0.55
					c-7.76-0.27-15.49-0.21-22.74-0.32c-7.25-0.07-14.02-0.14-19.82-0.19c-11.6-0.11-19.34-0.19-19.34-0.19v2.41
					c0,0,7.74-0.08,19.34-0.19c5.8-0.06,12.57-0.12,19.82-0.19c7.25-0.03,15-0.24,22.71-0.12c1.51,0.03,3.02,0.08,4.52,0.12
					l-0.04,0.47c0,0,0.55,0.03,1.51,0.09c0.99,0.02,2.42-0.02,4.08-0.18c0.39-0.04,0.83-0.11,1.25-0.16
					c3.88,0.12,7.7,0.21,11.4,0.17c3.63-0.03,7.15-0.19,10.47-0.51c1.66-0.16,3.27-0.34,4.82-0.62c1.55-0.32,3.01-0.79,4.37-1.3
					c5.44-2.09,9.53-4.92,11.81-7.44c1.18-1.23,1.77-2.46,2.17-3.27c0.27-0.87,0.41-1.33,0.41-1.33s-0.15,0.46-0.44,1.32
					C670.27,290.92,669.66,292.12,668.46,293.32z"/>
			</g>
		</g>
		<g>
			<path class="st1" d="M192.81,220.72c0,0,93.93,10.04,182.5,72.3c88.57,62.24,87.76,197.17,87.76,197.17s-60.98-14.95-101.7-32.19
				c0,0-48.92-17.58-83.57-42.27l7.15-1.6c0,0-25.73-17.93-38.61-36.26c-10.84-15.46-12.54-17.88-12.81-18.26
				c-0.05-0.07-0.05-0.07-0.05-0.07l4.49-0.01c0,0-16.76-28.3-19.57-45.41c-2.83-17.09-2.83-17.09-2.83-17.09l6.83-0.02
				c0,0-13.17-23.15-14.91-34.06c-1.53-9.54-3.82-12.12-4.37-12.63l7.49,4.91C210.61,255.24,203.33,228.87,192.81,220.72z"/>
			<g>
				<path class="st2" d="M312.43,394.76c3.66-1.05,8.74-1.98,13.86-2.4c2.57-0.18,5.14-0.27,7.53-0.2c2.4,0.07,4.62,0.25,6.48,0.54
					c0.93,0.14,1.79,0.27,2.5,0.44c0.72,0.16,1.34,0.27,1.89,0.44c1.07,0.31,1.68,0.48,1.68,0.48l0.79-1.94c0,0-0.62-0.14-1.72-0.4
					c-1.09-0.23-2.85-0.56-4.81-0.73c-1.99-0.21-4.32-0.28-6.8-0.23c-2.48,0.05-5.11,0.27-7.7,0.59
					c-5.19,0.69-10.24,1.88-13.84,3.11c-1.81,0.6-3.27,1.19-4.27,1.62c-0.99,0.45-1.56,0.7-1.56,0.7s0.58-0.23,1.61-0.63
					C309.09,395.78,310.59,395.27,312.43,394.76z"/>
				<path class="st2" d="M250.55,241.55c1.4,1.01,3.17,2.66,4.88,4.84c3.46,4.37,6.81,10.76,9.4,17.32
					c2.63,6.55,4.33,13.31,4.9,18.41c0.3,2.55,0.39,4.69,0.39,6.15c0,0.22,0,0.39-0.01,0.58c-1.22-1.41-2.45-2.8-3.68-4.16
					c-2.54-2.92-5.21-5.67-7.76-8.37c-5.13-5.39-10.2-10.34-14.98-14.85c-9.55-9.02-18.13-16.09-24.2-20.97
					c-6.1-4.86-9.79-7.47-9.79-7.47s3.53,2.74,9.43,7.75c5.92,4.99,14.1,12.33,23.45,21.43c4.13,4.04,8.48,8.45,12.89,13.18
					c-0.11,0.07-0.21,0.13-0.34,0.22c-0.16,0.05-0.29,0.06-0.46,0.12c-0.33,0.1-1.01,0.21-1.75,0.14c-0.76-0.02-1.67-0.2-2.65-0.46
					c-1.98-0.51-4.24-1.42-6.67-2.44c-1.22-0.51-2.47-1.05-3.8-1.55c-1.33-0.49-2.74-1-4.33-1.18c-1.43-0.17-3-0.22-4.44-0.22
					c-1.46,0-2.89,0.09-4.27,0.18c-2.75,0.21-5.29,0.5-7.48,0.71c-4.36,0.46-7.3,0.47-7.3,0.47s2.94,0.12,7.33-0.15
					c2.2-0.12,4.75-0.3,7.49-0.38c1.37-0.03,2.78-0.05,4.2,0.01c1.44,0.07,2.81,0.16,4.27,0.4c1.32,0.2,2.58,0.72,3.83,1.25
					c1.24,0.54,2.45,1.13,3.63,1.69c2.36,1.13,4.63,2.17,6.79,2.84c1.08,0.33,2.13,0.59,3.15,0.68c0.51,0.05,0.98,0.1,1.47,0.04
					c0.48-0.04,0.88-0.03,1.34-0.19c0.43-0.12,0.84-0.25,1.14-0.37c0.14-0.08,0.24-0.13,0.34-0.2c0.07,0.07,0.13,0.14,0.2,0.21
					c2.48,2.72,5.07,5.5,7.54,8.44c2.51,2.91,5.11,5.87,7.56,8.98c1.25,1.54,2.51,3.09,3.79,4.66c1.2,1.6,2.41,3.21,3.63,4.83
					c1.2,1.63,2.47,3.24,3.63,4.9c1.14,1.67,2.29,3.35,3.45,5.04c2.28,3.18,4.27,6.56,6.33,9.92c-1.73-0.4-4.03-0.93-6.78-1.57
					c-2.99-0.74-6.49-1.53-9.83-3.03c-1.7-0.74-3.45-1.6-5.34-2.36c-1.85-0.76-4.04-1.38-6.14-1.56c-4.25-0.51-8.49-0.49-12.43-0.35
					c-3.95,0.14-7.62,0.4-10.76,0.62c-6.28,0.47-10.48,0.55-10.48,0.55s4.21,0.04,10.51-0.23c3.15-0.12,6.82-0.27,10.75-0.29
					c3.92-0.02,8.13,0.1,12.18,0.71c2.09,0.26,3.88,0.84,5.67,1.64c1.16,0.5,2.27,1.06,3.39,1.61c-1.99-0.32-4.19-0.54-6.44-0.48
					c-1.83,0.07-3.67,0.28-5.26,0.87c-1.56,0.57-2.89,1.25-4.1,1.73c-1.2,0.5-2.28,0.77-3.05,0.89c-0.77,0.13-1.23,0.12-1.23,0.12
					s0.45,0.02,1.24-0.08c0.78-0.09,1.89-0.33,3.13-0.79c1.25-0.44,2.62-1.08,4.17-1.57c1.53-0.51,3.34-0.65,5.11-0.66
					c3.57,0.03,7.07,0.74,9.55,1.48c0.18,0.05,0.31,0.1,0.47,0.15c1.14,0.47,2.28,0.9,3.37,1.25c0.1,0.04,0.17,0.07,0.17,0.07
					l0.01-0.02c1.64,0.53,3.22,0.97,4.68,1.37c2.99,0.79,5.48,1.45,7.22,1.91c0.74,0.21,1.31,0.38,1.75,0.51
					c1.75,2.85,3.51,5.7,5.26,8.56c2.17,3.55,4.75,6.92,7.1,10.37c2.41,3.43,5.07,6.71,7.57,10.04c2.56,3.3,5.28,6.47,7.88,9.66
					c0.55,0.66,1.12,1.3,1.68,1.95c-0.31,0-0.6,0-0.96,0.01c-2.21,0.05-5.31,0.33-8.93,0.92c-3.63,0.57-7.75,1.45-12.19,2.14
					c-1.73,0.28-3.53,0.47-5.36,0.63c-0.89,0.01-2.18,0.07-3.62,0.25c-1.69,0.09-3.4,0.16-5.12,0.2c-4.85,0.12-9.74,0.13-14.3,0.35
					c-4.53,0.23-8.8,0.01-12.24-0.93c-1.73-0.44-3.24-1.01-4.62-1.45c-1.38-0.45-2.64-0.73-3.7-0.85c-1.06-0.12-1.91-0.08-2.47-0.05
					c-0.57,0.05-0.87,0.08-0.87,0.08s0.3-0.02,0.87-0.05c0.57-0.01,1.41-0.03,2.46,0.12c1.05,0.14,2.28,0.45,3.63,0.93
					c1.35,0.47,2.85,1.09,4.58,1.58c3.45,1.05,7.83,1.39,12.4,1.28c4.24-0.09,8.74,0,13.28,0.02c-1.98,0.54-4.03,1.21-6.02,1.98
					c-4.06,1.57-7.93,3.4-10.86,4.72c-2.93,1.33-4.92,2.15-4.92,2.15s2.03-0.76,5.02-2.01c2.99-1.24,6.94-2.95,11.04-4.39
					c3.18-1.12,6.47-1.99,9.33-2.46c4.03-0.04,8.05-0.21,11.82-0.71c4.55-0.59,8.71-1.36,12.27-1.82c3.56-0.48,6.53-0.67,8.58-0.66
					c1,0.01,1.8,0.02,2.39,0.07c0.13,0.01,0.2,0.01,0.3,0.02c1.54,1.76,3.08,3.5,4.58,5.24c10.73,12.03,21.61,22.73,31.1,31.77
					c9.51,9.03,17.86,16.26,23.73,21.3c1.69,1.44,3.15,2.66,4.42,3.72c0.02,0.17,0.04,0.25,0.04,0.25l0.24-0.03
					c2.99,2.48,4.7,3.83,4.7,3.83s-1.6-1.37-4.4-3.86l2-0.21c0,0-0.24-1.31-0.65-3.6c-0.38-2.28-0.93-5.54-1.46-9.47
					c-1.11-7.86-2.13-18.38-2.7-28.93c-0.3-5.27-0.52-10.55-0.68-15.5c-0.19-4.95-0.18-9.57-0.42-13.54
					c-0.21-3.96-0.66-7.26-1.14-9.54c-0.47-2.28-0.87-3.57-0.87-3.57s0.37,1.29,0.77,3.58c0.41,2.29,0.76,5.58,0.85,9.54
					c0.11,3.96-0.03,8.58,0.01,13.54c0.01,4.96,0.07,10.24,0.21,15.53c0.26,10.57,0.96,21.15,1.83,29.07
					c0.41,3.96,0.87,7.25,1.18,9.56c0.2,1.37,0.36,2.39,0.45,2.98c-5.54-4.94-15.23-13.79-26.99-25.38
					c-4.66-4.57-9.6-9.58-14.72-14.94c-5.12-5.37-10.34-11.13-15.68-17.12c-2.6-3.04-5.32-6.08-7.92-9.24
					c-2.55-3.19-5.24-6.36-7.76-9.65c-1.16-1.57-2.36-3.13-3.55-4.69l0.31,0c0,0-0.24-13.06-0.53-28.89l0.12-0.01
					c0,0-0.03-0.34-0.1-0.93c-0.01-0.12-0.02-0.27-0.05-0.42c-0.07-3.85-0.14-7.84-0.22-11.83c-0.13-5.26-0.1-10.51-0.41-15.46
					c-0.29-4.94-1.21-9.55-2.87-13.3c-0.87-1.85-1.79-3.52-2.86-4.89c-0.49-0.7-1.02-1.32-1.54-1.88c-0.49-0.58-0.98-1.08-1.47-1.5
					c-0.91-0.9-1.73-1.52-2.28-1.95c-0.55-0.43-0.84-0.66-0.84-0.66s0.29,0.24,0.82,0.68c0.54,0.44,1.34,1.08,2.22,1.99
					c0.47,0.43,0.95,0.94,1.42,1.52c0.5,0.56,1.01,1.19,1.48,1.9c1.02,1.37,1.88,3.05,2.69,4.9c1.52,3.74,2.29,8.31,2.44,13.22
					c0.16,4.91-0.03,10.18-0.06,15.43c-0.03,2.73-0.07,5.46-0.1,8.14c-0.36-0.52-0.77-1.04-1.22-1.56
					c-0.95-1.05-2.04-2.11-3.19-3.12c-1.14-1.02-2.3-2.01-3.3-2.99c-1.02-0.97-1.84-1.96-2.4-2.87c-0.25-0.46-0.53-0.88-0.62-1.29
					c-0.12-0.4-0.29-0.74-0.28-1.04c-0.06-0.59-0.1-0.93-0.1-0.93s0.02,0.34,0.04,0.94c-0.02,0.3,0.13,0.65,0.22,1.06
					c0.07,0.42,0.33,0.84,0.56,1.33c0.51,0.94,1.29,1.98,2.26,3c0.95,1.04,2.06,2.07,3.13,3.13c1.09,1.04,2.1,2.13,2.95,3.18
					c0.82,1.07,1.49,2.1,1.83,3.04c0.04,0.08,0.06,0.16,0.09,0.24c-0.15,12.46-0.29,23.64-0.35,28.8c-0.56-0.77-1.15-1.52-1.69-2.3
					c-2.3-3.44-4.85-6.8-6.96-10.32c-1.92-3.09-3.85-6.17-5.77-9.25l0.02-0.04c0,0-0.04-0.01-0.05-0.01
					c-0.25-0.41-0.51-0.82-0.77-1.23c-2.19-3.5-4.27-7.02-6.72-10.4c-1.18-1.7-2.36-3.4-3.52-5.09c-1.18-1.68-2.48-3.29-3.7-4.92
					c-1.24-1.63-2.47-3.24-3.69-4.85c-1.29-1.57-2.57-3.13-3.84-4.67c-0.83-1.03-1.68-2.02-2.52-3.03l1.02,0c0,0,0-0.85-0.06-2.39
					c-0.07-1.56-0.26-3.73-0.69-6.34c-0.83-5.21-2.88-12.01-5.84-18.54c-2.91-6.53-6.59-12.87-10.28-17.17
					c-1.83-2.16-3.69-3.76-5.14-4.73c-0.74-0.48-1.34-0.83-1.79-1.02c-0.43-0.21-0.66-0.32-0.66-0.32s0.23,0.12,0.65,0.34
					C249.26,240.68,249.84,241.06,250.55,241.55z"/>
				<path class="st2" d="M346.8,298.27c2.61,1.95,5.52,5.44,7.63,10.04c0.51,1.15,0.97,2.37,1.28,3.66
					c0.27,1.29,0.43,2.66,0.57,4.06c0.28,2.8,0.38,5.77,0.35,8.84c-0.02,1.88-0.09,3.81-0.18,5.76c-0.45-1.67-1.01-3.42-1.69-5.15
					c-0.75-1.78-1.53-3.56-2.48-5.15c-0.89-1.61-1.94-3.03-2.91-4.21c-0.54-0.56-0.98-1.1-1.47-1.52c-0.5-0.41-0.9-0.8-1.29-1.06
					c-0.8-0.51-1.26-0.8-1.26-0.8s0.45,0.3,1.23,0.83c0.38,0.27,0.76,0.67,1.24,1.09c0.47,0.43,0.88,0.98,1.4,1.54
					c0.91,1.19,1.89,2.63,2.7,4.25c0.87,1.6,1.57,3.38,2.24,5.17c1.08,3.12,1.78,6.27,2.1,8.87c-0.19,3.17-0.41,6.4-0.56,9.63
					c-0.27,6.58-0.18,13.14-0.28,19.29c-0.06,6.15-0.11,11.89-0.15,16.82c-0.09,9.84-0.15,16.41-0.15,16.41l2.56-0.01
					c0,0-0.1-6.56-0.25-16.41c-0.07-4.92-0.16-10.66-0.26-16.82c-0.05-6.15-0.29-12.72-0.19-19.26c0.03-1.28,0.07-2.56,0.12-3.84
					l0.5,0.03c0,0,0.03-0.47,0.09-1.28c0.01-0.84-0.03-2.06-0.2-3.46c-0.04-0.33-0.12-0.71-0.18-1.06c0.12-3.29,0.2-6.53,0.15-9.67
					c-0.05-3.08-0.22-6.06-0.57-8.88c-0.17-1.41-0.37-2.77-0.67-4.09c-0.35-1.32-0.84-2.55-1.39-3.7c-2.24-4.61-5.25-8.07-7.93-9.99
					c-1.31-1-2.61-1.5-3.48-1.83c-0.92-0.23-1.41-0.35-1.41-0.35s0.49,0.13,1.4,0.37C344.24,296.74,345.52,297.26,346.8,298.27z"/>
			</g>
		</g>
		<g>
			<path class="st3" d="M421.29,268.79c0,0,88.05-18.26,126.13,50.16s0,181.99-114.23,168.3
				c-114.23-13.68-109.47-102.73-101.14-127.99C340.38,334,355.85,280.21,421.29,268.79z"/>
			<path class="st4" d="M553.73,364.11c0,0,6.24,82.1-66.16,108.78s-140.62-22.97-147.3-65.68c-6.68-42.71,4.99-59.52,10.61-32.84
				c5.62,26.68,31.21,45.99,99.24,46.6c68.03,0.61,91.75-36.34,93.62-55.49C545.61,346.32,553.9,350.55,553.73,364.11z"/>
			<path class="st5" d="M450.78,274.62c0,0,42.14,0.54,55.87,26.44c13.73,25.9-11.75,49.11-61.51,49.11
				c-49.76,0-63.69-38.32-55.07-51.81C398.69,284.88,415.26,274.62,450.78,274.62z"/>
			<path class="st6" d="M450.08,277.54c0,0,25.48,0.31,33.79,15.08c8.3,14.77-7.11,28-37.2,28c-30.09,0-38.51-21.85-33.3-29.54
				C418.58,283.39,428.6,277.54,450.08,277.54z"/>
			<path class="st7" d="M449.01,283.07c0,0,7.99,0.26,10.21,3.46c2.22,3.2,1.75,11.33-13.16,10.84
				C431.14,296.88,432.89,282.57,449.01,283.07z"/>
			<ellipse cx="512.99" cy="366.99" rx="11.26" ry="15.92"/>
			<g>
				<path class="st5" d="M525.84,429.45c8.79,0,16.01-3.66,19.7-6.77c1.66-1.4,1.88-3.89,0.48-5.55c-1.4-1.66-3.88-1.87-5.54-0.48
					c-0.61,0.5-13.77,11.04-29.85-0.21c-1.78-1.25-4.24-0.81-5.49,0.97c-1.25,1.78-0.81,4.24,0.97,5.49
					C513,427.72,519.79,429.45,525.84,429.45z"/>
			</g>
			<g>
				<path class="st5" d="M499.94,353.14c1.06,0,2.09-0.57,2.62-1.58c0.34-0.64,8.26-15.2,22.34-11.31c1.57,0.44,3.2-0.49,3.64-2.06
					c0.43-1.57-0.49-3.2-2.06-3.64c-14.96-4.14-25.61,7.52-29.14,14.26c-0.76,1.45-0.2,3.23,1.24,3.99
					C499.01,353.03,499.48,353.14,499.94,353.14z"/>
			</g>
			<path class="st7" d="M506.51,359.89c0-1.74,1.41-3.15,3.15-3.15s3.15,1.41,3.15,3.15c0,1.74-1.41,3.15-3.15,3.15
				S506.51,361.63,506.51,359.89z"/>
		</g>
		<g>
			<path class="st1" d="M326.23,386.83c0,0-27.56-18.87-62.76-19.82v4.77c0,0-39.43-7.98-57.74-8.61
				c-18.31-0.63-18.31-0.63-18.31-0.63l4.22,4.47c0,0-41.59-3.64-72.9-0.18l3.9,7.85c0,0-35.91,6.16-52.81,16.37
				c-16.9,10.21-30.28,12.41-30.28,12.41s49.9,38.99,71.77,50.43l-8.4,2.64c0,0,25.37,32.37,69.37,41.36l-5.08,4.58
				c0,0,17.59,28.56,86.45,25.88l-6.24,7.39c0,0,78.52,13.11,105.72-24.42C380.35,473.79,374.91,418.17,326.23,386.83z"/>
			<g>
				<path class="st2" d="M325.27,452.79c-0.46-0.1-1.3-0.2-2.06-0.42c-1.59-0.35-4.23-1.14-7.41-2.46
					c-3.22-1.33-7.08-3.23-11.66-5.44c-2.29-1.09-4.77-2.26-7.49-3.35c-1.37-0.54-2.8-1.05-4.3-1.52c-1.41-0.44-2.86-0.88-4.34-1.34
					c-11.8-3.61-25.61-8.28-41.03-11.27c-3.85-0.75-7.81-1.32-11.85-1.72c-4.06-0.37-7.98-0.62-12.01-1.08
					c-5.29-0.56-10.63-1.27-15.98-2.06l0-0.26c0,0-0.31,0-0.9,0c-0.21-0.01-0.5,0-0.82,0.02c-1.25-0.19-2.5-0.38-3.75-0.57
					l0.14-0.03c0,0-0.15-0.7-0.53-2.01c-0.37-1.29-0.92-3.08-1.68-5.2c-0.75-2.12-1.68-4.58-2.77-7.17
					c-1.1-2.59-2.31-5.33-3.86-7.95c-0.8-1.28-1.81-2.5-2.89-3.53c-1.1-1.02-2.27-1.91-3.43-2.7c-2.36-1.55-4.7-2.73-6.7-3.73
					c-2.01-0.99-3.68-1.8-4.83-2.42c-1.15-0.62-1.8-0.98-1.8-0.98s0.64,0.38,1.76,1.06c1.12,0.66,2.76,1.55,4.72,2.63
					c1.95,1.08,4.23,2.36,6.47,3.98c2.24,1.64,4.38,3.66,5.79,6.21c1.38,2.57,2.46,5.35,3.43,7.95c0.96,2.61,1.78,5.07,2.42,7.19
					c0.65,2.12,1.12,3.91,1.41,5.15c0.12,0.5,0.21,0.9,0.28,1.22c-0.27-0.04-0.54-0.08-0.81-0.13c-4.07-0.66-8.14-1.32-12.2-1.98
					c-4.06-0.65-8.08-1.4-12.22-1.8c-8.18-0.84-16.21-0.81-23.92-1.06c-0.6-0.01-1.18-0.05-1.77-0.07
					c-0.23-0.07-0.48-0.16-0.75-0.27c-1.08-0.39-2.66-1.07-4.47-2.04c-1.82-0.97-3.89-2.23-6.15-3.58
					c-1.12-0.67-2.31-1.36-3.53-2.02c-1.21-0.67-2.52-1.27-3.78-1.84c-2.52-1.13-4.94-2.53-7.27-3.73c-2.33-1.2-4.58-2.23-6.58-2.87
					c-2.01-0.66-3.77-0.88-5-0.83c-1.23,0.01-1.91,0.24-1.91,0.2c0,0.04,0.69-0.15,1.91-0.11c1.21,0.02,2.95,0.31,4.89,1.06
					c1.95,0.73,4.11,1.84,6.37,3.15c2.26,1.3,4.61,2.81,7.13,4.1c4.98,2.43,9.35,5.89,13.04,8.03c0.29,0.18,0.57,0.33,0.85,0.49
					c-5.2-0.36-10.24-0.96-15.08-1.76c-6.99-1.2-13.6-2.34-19.7-3.39c-6.13-0.99-11.78-1.59-16.78-2.13
					c-5-0.53-9.36-0.99-12.95-1.43c-7.17-0.87-11.23-1.66-11.23-1.66s4.04,0.88,11.19,1.93c3.57,0.53,7.93,1.09,12.91,1.74
					c4.99,0.66,10.61,1.39,16.68,2.53c6.08,1.2,12.66,2.5,19.62,3.87c6.25,1.19,12.94,2.07,19.82,2.49
					c0.25,0.09,0.46,0.17,0.63,0.24c0.15,0.06,0.27,0.1,0.35,0.13c-0.08,0.04-0.15,0.07-0.22,0.11c-1.26,0.65-2.51,1.5-3.81,2.41
					c-1.3,0.91-2.62,1.91-3.98,2.93c-2.73,1.99-5.64,4.29-9.03,5.11c-7.07,1.58-14.4,1.67-19.85,1.77
					c-5.46,0.06-9.11,0.09-9.11,0.09s3.64,0.09,9.11,0.24c2.73,0.06,5.92,0.11,9.35,0.01c3.42-0.11,7.1-0.39,10.7-1.07
					c1.89-0.37,3.61-1.19,5.2-2.08c1.58-0.92,3.05-1.92,4.46-2.9c1.41-0.97,2.75-1.92,4.05-2.76c1.3-0.83,2.53-1.61,3.72-2.17
					c1.17-0.6,2.29-1.01,3.28-1.23c0.49-0.17,0.96-0.17,1.39-0.22c0.44-0.08,0.8-0.04,1.11,0c0.33,0.05,0.57-0.01,0.87,0.1
					c0.3,0.09,0.55,0.17,0.75,0.24c0.41,0.13,0.62,0.2,0.62,0.2l0.18-0.6c5.41,0.26,10.89,0.55,16.37,1.25
					c3.94,0.47,7.97,1.32,12.01,2.07c3.95,0.74,7.92,1.48,11.89,2.22c-0.99,0.56-1.99,1.23-2.98,2c-1.51,1.18-3.01,2.55-4.63,3.91
					c-0.35,0.3-0.75,0.58-1.12,0.88l0-0.06c0,0-0.62-0.08-1.94-0.03c-1.24,0.05-2.97,0.29-4.95,0.75c-1.99,0.44-4.24,1.1-6.65,1.6
					c-2.46,0.47-5.08,0.98-7.7,1.48c-2.62,0.53-5.26,0.94-7.73,1.36c-2.47,0.41-4.78,0.8-6.76,1.13c-3.96,0.66-6.59,1.1-6.59,1.1
					s2.66-0.31,6.64-0.78c1.99-0.23,4.32-0.51,6.81-0.8c2.49-0.3,5.15-0.57,7.8-0.98c2.65-0.37,5.31-0.75,7.79-1.1
					c2.53-0.39,4.8-0.95,6.75-1.27c1.52-0.27,2.82-0.41,3.84-0.45c-0.52,0.34-1.01,0.7-1.55,1.03c-3.94,2.4-8.51,4.4-12.98,6.65
					c-2.24,1.11-4.44,2.37-6.51,3.67c-2.09,1.27-4.19,2.42-6.27,3.47c-4.16,2.09-8.2,3.74-11.75,4.89
					c-3.54,1.17-6.61,1.78-8.77,2.03c-1.08,0.11-1.94,0.18-2.52,0.16c-0.58,0.01-0.9,0.02-0.9,0.02s0.31,0,0.9,0.01
					c0.59,0.03,1.44-0.02,2.53-0.1c2.17-0.2,5.27-0.73,8.86-1.81c3.59-1.07,7.69-2.62,11.94-4.61c2.12-1,4.28-2.11,6.42-3.33
					c2.12-1.25,4.28-2.41,6.53-3.46c4.49-2.12,9.13-4,13.25-6.35c2.07-1.17,3.96-2.48,5.67-3.84c1.7-1.34,3.23-2.67,4.69-3.75
					c1.46-1.09,2.87-1.92,4.19-2.43c0.42-0.16,0.8-0.26,1.19-0.37c7.07,1.26,14.16,2.44,21.21,3.36c4.04,0.56,8.15,0.92,12.02,1.37
					c3.88,0.48,7.7,1.12,11.43,1.94c6.56,1.43,12.84,3.19,18.84,5.04c-0.06,0.23-0.15,0.45-0.27,0.66
					c-0.22,0.41-0.32,0.89-0.72,1.44c-0.66,1.11-1.62,2.41-2.93,3.75c-1.26,1.38-2.9,2.77-4.71,4.25
					c-3.67,2.92-8.29,5.94-13.28,9.17c-0.27,0.18-0.55,0.37-0.82,0.55l0-0.22c0,0-0.87,0.03-2.3-0.01c-1.47-0.06-3.58-0.13-6.1-0.23
					c-2.54-0.09-5.54-0.18-8.76,0.13c-1.61,0.15-3.27,0.44-4.92,0.95c-1.67,0.51-3.15,1.37-4.72,1.83c-3.13,1.08-6.49,1.5-9.62,1.71
					c-3.15,0.18-6.1,0.13-8.63,0.09c-5.07-0.13-8.45-0.08-8.45-0.08s3.38,0.08,8.43,0.41c5.03,0.25,11.91,0.8,18.59-1.13
					c1.7-0.44,3.21-1.24,4.74-1.63c1.55-0.41,3.13-0.64,4.68-0.71c3.1-0.17,6.03,0.03,8.54,0.21c2.41,0.18,4.41,0.34,5.88,0.45
					c-0.11,0.08-0.22,0.15-0.34,0.23c-1.22,0.92-2.46,1.85-3.71,2.78c-2.5,1.83-5.12,3.59-7.75,5.35c-2.62,1.79-5.29,3.47-7.76,5.45
					c-2.46,2.02-4.49,4.34-6.5,6.51c-2.01,2.17-3.99,4.24-6.15,5.85c-2.13,1.63-4.48,2.76-6.67,3.6c-2.21,0.84-4.3,1.45-6.14,2.03
					c-1.84,0.57-3.44,1.12-4.72,1.64c-1.28,0.52-2.27,0.99-2.93,1.33c-0.65,0.35-1,0.54-1,0.54s0.35-0.18,1.01-0.52
					c0.66-0.33,1.66-0.78,2.95-1.27c1.29-0.49,2.9-1,4.75-1.53c1.85-0.54,3.96-1.1,6.2-1.9c2.24-0.81,4.62-1.88,6.85-3.51
					c2.24-1.59,4.29-3.65,6.35-5.79c2.06-2.13,4.14-4.4,6.55-6.29c2.44-1.86,5.17-3.52,7.81-5.24c2.67-1.71,5.34-3.42,7.9-5.22
					c1.26-0.91,2.52-1.81,3.76-2.7c0.62-0.42,1.25-0.81,1.88-1.21c0.16,0,0.27,0.01,0.27,0.01l0-0.18c0.54-0.34,1.08-0.71,1.62-1.04
					c5.04-3.11,9.77-6.06,13.6-8.98c1.89-1.49,3.61-2.88,4.99-4.32c1.42-1.39,2.5-2.79,3.29-4.04c0.44-0.57,0.68-1.3,0.95-1.85
					c0.13-0.26,0.21-0.48,0.28-0.69c6.91,2.18,13.41,4.45,19.44,6.46c1.47,0.49,2.91,0.97,4.31,1.45c1.32,0.45,2.6,0.95,3.85,1.47
					c2.49,1.07,4.84,2.23,7.06,3.36c4.43,2.27,8.39,4.35,11.82,5.86c3.46,1.52,6.25,2.47,8.42,3c1.1,0.31,1.74,0.39,2.25,0.51
					c0.49,0.1,0.74,0.15,0.74,0.15l1.18-6.23C326.02,452.93,325.76,452.88,325.27,452.79z M149.17,417.98
					c0.1,0.01,0.21,0.02,0.31,0.02c-0.13,0.06-0.25,0.12-0.38,0.18L149.17,417.98z"/>
				<path class="st2" d="M222.12,397.83c0.48,0.06,0.99,0.24,1.56,0.38c1.13,0.34,2.41,0.83,3.74,1.47c1.33,0.62,2.7,1.4,4.05,2.2
					c4.34,2.64,8.24,5.8,9.59,6.93c0.74,1.5,1.5,2.98,2.32,4.42c0.8,1.46,1.68,2.85,2.56,4.18c0.91,1.31,1.8,2.57,2.77,3.68
					c0.9,1.16,1.9,2.13,2.8,3.05c0.86,0.95,1.85,1.65,2.64,2.36c0.8,0.72,1.53,1.21,2.13,1.63c1.2,0.84,1.88,1.33,1.88,1.33
					l1.18-1.75c0,0-0.7-0.46-1.93-1.25c-0.62-0.4-1.38-0.87-2.12-1.5c-0.75-0.64-1.69-1.23-2.55-2.12c-0.89-0.85-1.89-1.73-2.8-2.82
					c-0.98-1.02-1.88-2.21-2.82-3.45c-0.9-1.26-1.82-2.58-2.66-3.98c-0.8-1.29-1.56-2.64-2.3-4l0.11-0.14c0,0-0.14-0.11-0.35-0.27
					c-3.12-5.86-6.05-11.88-8.92-16c-0.68-1.06-1.38-1.98-2.01-2.79c-0.61-0.82-1.17-1.51-1.68-2.05c-0.97-1.1-1.53-1.72-1.53-1.72
					s0.53,0.65,1.46,1.78c0.48,0.55,1.01,1.26,1.59,2.11c0.6,0.83,1.26,1.77,1.89,2.85c2.42,3.78,4.82,9.07,7.39,14.46
					c-1.97-1.43-5.06-3.57-8.37-5.4c-1.39-0.75-2.8-1.48-4.18-2.05c-1.36-0.59-2.68-1.04-3.83-1.33c-0.58-0.12-1.1-0.28-1.59-0.32
					c-0.48-0.05-0.89-0.14-1.24-0.13c-0.69,0-1.09,0-1.09,0s0.39,0.02,1.08,0.05C221.24,397.65,221.64,397.76,222.12,397.83z"/>
			</g>
		</g>
		<g>
			<path class="st3" d="M261.16,595.4c0,0-98.85-5.63-89.24-115.47c9.61-109.84,138.67-123.92,193.58-85.9
				C420.42,432.05,450.62,608.08,261.16,595.4z"/>
			<path class="st5" d="M242.7,424.74c0,0,21.29,11.7,41.89,0c20.6-11.7,17.95-23.33,16.9-28.08c-1.06-4.74,19.54-3.7,18.48,16.64
				c-1.06,20.34-15.31,37.23-45.42,38.29c-30.1,1.06-41.19-10.56-45.94-23.76c-4.75-13.2,8.45-27.46,8.45-22.71
				S235.67,419.01,242.7,424.74z"/>
			<path class="st6" d="M240.23,427.69c0,0,5.54,20.99,42.25,13.34c36.7-7.66,25.61-44.09,22.18-36.44
				c-3.43,7.66-7.08,22.2-30.08,26.02C251.59,434.43,237.33,420.43,240.23,427.69z"/>
			<path class="st4" d="M269.87,390.16c0,0-18.73,0.7-25.42,13.38c-6.69,12.67,6.18,27.54,31.61,18.35
				c25.43-9.2,21.91-19.41,17.68-23.63C289.52,394.03,278.11,388.79,269.87,390.16z"/>
			<path class="st8" d="M284.65,418.83c-0.08-1.27-0.19-2.6-0.42-3.68c-0.74-3.3,0.11-1.75-1.9-3.72c-0.53-0.49-4.54-3.25-5.62-3.17
				c-1.54,0.15-1.65,1.8-3.11,2.41c-1.01,0.44-2.96-0.13-4.08-0.04c-2.26,0.15-6.93-0.13-6.53,3.8c-1.06,0.36-2.3,0.61-3.36,0.68
				c0.53,0.61,0.76,1.77,1.37,2.43c-0.85,1.14-1.86,4.37-1.25,5.79c-5.39-0.55-9.63-2.3-11.39-5.22c1.22-1.33,0.91-2.32,0.8-4.44
				c0,0.04,0.08-2.45-0.02-2.3c0.68-0.97,0.8-0.08,1.73-0.7c0.7-0.44,1.69-0.4,2.41-1.27c0.49-0.57,0-1.52,0.44-2.18
				c1.01-1.46,3.21-2.28,4.54-3.36c1.16-0.93,1.8-2.47,3.11-3.13c1.77-0.87,4.67,0.25,6.59-0.08c2.47-0.44,1.84-0.84,4.33,0.11
				c1.86,0.7,3.36,1.03,4.71-0.97c2.98-0.21,5.3,1.82,7.25,3.82c0.32-0.3,0.97-0.38,1.33-0.82c1.08,1.46,0.8,2.94,2.62,3.68
				c0.65,0.25,1.94,0.21,3.11,0.13C293.27,410.42,292.62,415.01,284.65,418.83z"/>
			<path class="st4" d="M179.1,480.47c0,0-14.38,64.59,43.18,96.8s164.23,0,175.32-57.03c11.09-57.03-8.45-89.25-15.31-92.41
				c-6.87-3.17,14.79,50.28-33.27,81.12c-48.06,30.84-142.72,20.68-152.09-15.63C188.48,460.57,183.32,461.46,179.1,480.47z"/>
			<path class="st9" d="M284.65,418.83c-0.7,0.36-1.46,0.7-2.28,1.01c-7.52,3-15.93,4.16-22.6,3.49c-0.61-1.42,0.4-4.65,1.25-5.79
				c-0.61-0.65-0.85-1.82-1.37-2.43c1.06-0.06,2.3-0.32,3.36-0.68c-0.4-3.93,4.27-3.65,6.53-3.8c1.12-0.08,3.06,0.49,4.08,0.04
				c1.46-0.61,1.56-2.26,3.11-2.41c1.08-0.08,5.09,2.68,5.62,3.17c2.01,1.96,1.16,0.42,1.9,3.72
				C284.46,416.23,284.57,417.56,284.65,418.83z"/>
			<path class="st7" d="M256.23,431.59c0,0,20.98,3.47,30.11-2.27c9.13-5.74,3.43,2.93-0.71,5.86c-4.13,2.93-19.39,3.99-29.71-1.03
				C245.6,429.15,251.04,429.23,256.23,431.59z"/>
			<path class="st7" d="M298.66,421.1c0.08-0.66-3.47-1.24-4.3,1.7C293.52,425.74,298.25,424.48,298.66,421.1z"/>
			<ellipse transform="matrix(0.1602 -0.9871 0.9871 0.1602 -216.198 774.4862)" cx="347.05" cy="514.3" rx="12.94" ry="12.94"/>
			<ellipse transform="matrix(0.1597 -0.9872 0.9872 0.1597 -316.4551 656.8442)" cx="227.58" cy="514.3" rx="12.94" ry="12.94"/>
			<circle class="st7" cx="231.68" cy="510.21" r="4.09"/>
			<circle class="st7" cx="351.14" cy="510.21" r="4.09"/>
			<g>
				<path class="st5" d="M307.18,577.4c-1.69,0-3.1-1.34-3.16-3.04c-0.07-1.75,1.29-3.22,3.04-3.29
					c0.32-0.01,31.84-1.48,36.95-19.36c0.48-1.68,2.24-2.65,3.92-2.18c1.68,0.48,2.66,2.24,2.18,3.92
					c-6.37,22.28-41.31,23.89-42.79,23.95C307.26,577.4,307.22,577.4,307.18,577.4z"/>
			</g>
			<g>
				<g>
					<path class="st5" d="M238,486.31c-0.57,0-1.14-0.23-1.56-0.68c-10.53-11.46-29.07,0.23-29.25,0.35
						c-0.98,0.63-2.29,0.35-2.92-0.63c-0.63-0.98-0.35-2.29,0.63-2.92c0.22-0.14,21.72-13.74,34.65,0.35
						c0.79,0.86,0.73,2.19-0.13,2.98C239.02,486.13,238.51,486.31,238,486.31z"/>
				</g>
			</g>
			<g>
				<g>
					<path class="st5" d="M329.1,483.43c-0.51,0-1.02-0.18-1.43-0.56c-0.86-0.79-0.92-2.12-0.13-2.98
						c0.5-0.55,12.55-13.38,34.74-5.62c1.1,0.39,1.68,1.59,1.3,2.69c-0.38,1.1-1.59,1.68-2.69,1.3
						c-19.45-6.81-29.79,4.02-30.22,4.48C330.23,483.2,329.67,483.43,329.1,483.43z"/>
				</g>
			</g>
		</g>
		<g>
			<g>
				<path class="st3" d="M412.21,432.97c0,0-63.12,7.83-82.1,75.46c-18.97,67.63,25.65,154.25,154.03,122.92
					C599.16,603.29,564.86,401.98,412.21,432.97z"/>
				<path class="st4" d="M335.05,537.29c0,0-4.67,54.69,47.79,82.4c52.45,27.7,118.73,9.95,142.83-21.93
					c16.8-22.23,23.7-62.14,15.45-70.45c-8.25-8.31,8.78,24.25-68.39,46.45c-77.17,22.2-122.33-28.32-128.17-36.78
					C338.7,528.52,335.16,534.3,335.05,537.29z"/>
				<path class="st5" d="M433.88,434.98c0,0-45.48,1.4-45.62,34.07c-0.14,32.67,80.46,37.35,92.79,4.59
					C493.37,440.88,449.8,434.45,433.88,434.98z"/>
				<path class="st6" d="M433.41,440.16c0,0-27,2.67-26.47,18.61c0.53,15.93,35.66,20.87,51.73,5.94S445.39,439.76,433.41,440.16z"
					/>
				<path class="st7" d="M445.87,448.88c-0.11-3.38-5.12-5.96-11.19-5.76c-6.07,0.2-10.9,3.11-10.79,6.49
					c0.11,3.38,5.12,5.96,11.19,5.76C441.15,455.17,445.98,452.27,445.87,448.88z"/>
				<path class="st4" d="M518.9,506.5c0-0.66-0.06-1.38-0.18-2.17c-0.75-4.87,0.42-8.5-2.72-12.61c-1.37-1.78-1.58-2.17-3.25-3.55
					c-2.1-1.72-3.27-3.02-4.39-4.6c-0.52-0.74,0.68-1.79-0.52-2.98c-0.61-0.61-2.54-0.1-3.34-0.39c-0.91-0.36-1.72-0.38-2.48-0.47
					c3.36-7.38,12.48-3.19,12.48-3.19c2.44,1.35,4.52,3.03,6.29,4.93c0,0.04,0.04,0.05,0.06,0.09
					C526.64,488.13,527.83,506.2,518.9,506.5z"/>
				<path class="st8" d="M518.9,506.5c-6.1,0.2-12.14-4.33-15.37-7.24c-1.49-3.26-2.46-6.91-2.68-10.82
					c-0.2-3.93,0.27-6.73,1.16-8.71c0.76,0.09,1.57,0.11,2.48,0.47c0.8,0.29,2.73-0.22,3.34,0.39c1.2,1.19,0,2.25,0.52,2.98
					c1.12,1.58,2.29,2.89,4.39,4.6c1.67,1.38,1.88,1.78,3.25,3.55c3.14,4.11,1.97,7.74,2.72,12.61
					C518.84,505.12,518.9,505.84,518.9,506.5z"/>
				<path class="st3" d="M528.75,500.45c0,0.02,0,0.02,0,0.04c-0.66,15.5-11.38,13.26-12.17,13.09c-0.04-0.02-0.06-0.02-0.06-0.02
					c1.53-2.24,2.42-4.2,2.38-7.05c8.93-0.3,7.74-18.37,1.95-24.95c-0.02-0.04-0.06-0.05-0.06-0.09
					C525.81,486.89,528.24,494.12,528.75,500.45z"/>
				<path class="st9" d="M518.9,506.5c0.04,2.85-0.85,4.81-2.38,7.05c-4.76-2.42-9.93-7.51-12.99-14.29
					C506.76,502.17,512.8,506.7,518.9,506.5z"/>
				<path class="st4" d="M525.82,513.65c-1.96,2.03-5.46,1.84-9.24-0.08c0.8,0.18,11.51,2.41,12.17-13.09
					C529.2,506.27,528.06,511.31,525.82,513.65z"/>
			</g>
			<g>
				<path d="M462.92,617.2c-1.4,0.05-2.64-0.98-2.82-2.4c-1.1-8.32-10.36-22.44-10.45-22.58c-0.49-0.74-0.59-1.67-0.28-2.5
					c0.32-0.83,1.01-1.46,1.87-1.69c8.77-2.34,26.92,8.49,28.96,9.73c1.3,0.79,1.71,2.49,0.92,3.79c-0.79,1.3-2.49,1.72-3.79,0.92
					c-5.4-3.29-14.39-7.78-20.41-8.98c3.07,5.21,7.79,14.08,8.65,20.58c0.2,1.51-0.86,2.9-2.37,3.1
					C463.11,617.19,463.02,617.19,462.92,617.2z"/>
			</g>
			<g>
				<path d="M465.65,607.34c-0.96,0.03-1.92-0.44-2.45-1.33c-4.32-7.11-12.73-12.98-12.82-13.04c-1.25-0.87-1.57-2.58-0.7-3.84
					c0.87-1.25,2.59-1.56,3.84-0.7c0.38,0.27,9.47,6.6,14.4,14.71c0.79,1.3,0.38,3-0.93,3.79
					C466.57,607.19,466.11,607.32,465.65,607.34z"/>
			</g>
			<path class="st5" d="M404.71,600.23c-6.37,5-14.16,5.71-17.39,1.59c-3.23-4.12-0.68-11.51,5.69-16.51
				c6.37-5,14.16-5.71,17.39-1.59C413.63,587.84,411.09,595.23,404.71,600.23z"/>
			<g>
				<path class="st5" d="M507.18,595.65c-0.11,0-0.23,0-0.34-0.02c-1-0.15-1.69-1.09-1.54-2.1c2.26-14.8-10.95-25.8-11.08-25.91
					c-0.79-0.64-0.9-1.8-0.26-2.59c0.64-0.79,1.8-0.9,2.59-0.26c0.61,0.5,14.97,12.46,12.39,29.31
					C508.79,594.98,508.04,595.62,507.18,595.65z"/>
			</g>
			<g>
				<path d="M404.29,532.24c-0.8-0.05-1.53-0.44-2.02-1.08c-0.1-0.13-10.35-13.55-17.84-17.34c-1.36-0.69-1.9-2.35-1.21-3.71
					c0.69-1.36,2.35-1.9,3.71-1.21c5.85,2.97,12.65,10.36,16.55,14.98c0.87-6.09-0.4-16.05-1.71-22.24
					c-0.32-1.49,0.64-2.96,2.13-3.27c1.49-0.31,2.96,0.64,3.27,2.13c0.5,2.34,4.7,23.04-0.42,30.55c-0.5,0.73-1.32,1.18-2.21,1.2
					C404.46,532.25,404.38,532.25,404.29,532.24z"/>
			</g>
			<g>
				<path d="M404.29,532.24c-1.14-0.07-2.16-0.86-2.49-2.02c-0.03-0.1-2.79-10.01-8.05-16.41c-0.97-1.18-0.8-2.92,0.38-3.88
					c1.18-0.97,2.92-0.8,3.88,0.38c6.02,7.33,8.98,18.01,9.11,18.46c0.4,1.47-0.46,2.99-1.93,3.39
					C404.9,532.23,404.59,532.26,404.29,532.24z"/>
			</g>
			<g>
				<path class="st3" d="M441.87,498.48c-0.71-0.05-1.35-0.5-1.61-1.21c-0.06-0.16-6.11-16.28-20.77-19.05
					c-1-0.19-1.66-1.15-1.47-2.15c0.19-1,1.16-1.64,2.15-1.47c16.75,3.16,23.28,20.66,23.55,21.41c0.35,0.95-0.15,2.01-1.1,2.36
					C442.37,498.46,442.11,498.49,441.87,498.48z"/>
			</g>
		</g>
	</g>
</g>
</svg>
